<svg width="182" height="67" viewBox="0 0 182 67" fill="none" xmlns="http://www.w3.org/2000/svg">
<path d="M21.7578 32.9727C21.7578 37.3826 23.5479 41.3777 26.4365 44.2663C29.329 47.1588 33.3201 48.9449 37.734 48.9449H50.8571C51.11 48.9449 51.2365 48.6407 51.0587 48.4628L44.1079 41.512C43.934 41.3382 43.6653 41.3184 43.4598 41.4567C41.65 42.6817 39.4253 43.3416 37.0425 43.1875C32.0279 42.8595 27.9302 38.825 27.5311 33.8183C27.0253 27.5037 32.2532 22.2679 38.5638 22.7658C43.5072 23.157 47.522 27.1481 47.933 32.0915C48.1266 34.415 47.5457 36.5884 46.4235 38.3903C46.2971 38.5918 46.3208 38.8526 46.4907 39.0186L53.2242 45.752C53.402 45.9299 53.7062 45.8034 53.7062 45.5505V33.2533C53.7062 24.4017 46.467 16.9333 37.6155 17.0004C33.2529 17.0321 29.3053 18.8142 26.4404 21.6791C23.5518 24.5677 21.7618 28.5627 21.7618 32.9727H21.7578Z" fill="url(#paint0_radial_52_235)"/>
<path d="M32.4521 29.156C32.9263 29.7013 33.4558 29.567 33.9063 29.1125C35.6885 27.3146 39.1026 27.1723 41.0902 29.0335C41.4815 29.401 41.928 29.7171 42.4852 29.2983C43.0423 28.8794 42.9672 28.3538 42.252 27.6584C39.7546 25.2202 35.0681 25.2835 32.6615 27.7769C32.2545 28.1958 32.0056 28.6423 32.4521 29.1521V29.156Z" fill="white"/>
<g filter="url(#filter0_f_52_235)">
<path d="M17 33.6529C17 38.0628 18.9803 42.0578 22.1758 44.9464C25.3757 47.839 29.7909 49.6251 34.6738 49.6251H49.1915C49.4712 49.6251 49.6111 49.3208 49.4144 49.143L41.725 42.1922C41.5327 42.0183 41.2354 41.9986 41.0081 42.1369C39.006 43.3619 36.5448 44.0218 33.9088 43.8677C28.3615 43.5397 23.8282 39.5051 23.3867 34.4985C22.8272 28.1839 28.6106 22.9481 35.5918 23.446C41.0606 23.8372 45.502 27.8283 45.9566 32.7717C46.1708 35.0952 45.5282 37.2686 44.2867 39.0705C44.1468 39.272 44.173 39.5328 44.361 39.6988L51.81 46.4322C52.0067 46.61 52.3433 46.4836 52.3433 46.2307V33.9334C52.3433 25.0819 44.3348 17.6134 34.5427 17.6806C29.7166 17.7122 25.3495 19.4944 22.1802 22.3593C18.9846 25.2479 17.0044 29.2429 17.0044 33.6529H17Z" fill="url(#paint1_radial_52_235)" fill-opacity="0.52"/>
</g>
<path d="M32.4502 29.1555C32.9244 29.7008 33.4539 29.5665 33.9043 29.1121C35.6865 27.3141 39.1007 27.1718 41.0883 29.033C41.4795 29.4005 41.926 29.7166 42.4832 29.2978C43.0404 28.8789 42.9653 28.3534 42.2501 27.6579C39.7527 25.2198 35.0661 25.283 32.6596 27.7764C32.2526 28.1953 32.0036 28.6418 32.4502 29.1516V29.1555Z" fill="white"/>
<g clip-path="url(#clip0_52_235)">
<path d="M71.6753 45.2321L65.0039 21.9922H70.3867L74.2525 38.1333H74.4587L78.7075 21.9922H83.3244L87.5658 38.1773H87.772L91.6378 21.9922H97.0206L90.3345 45.2248H85.5261L81.108 30.0371H80.9165L76.4837 45.2248H71.6606L71.6753 45.2321Z" fill="white"/>
<path d="M103.367 35.1559V45.2321H98.5293V21.9922H103.213V30.9024H103.433C103.831 29.8757 104.472 29.0617 105.348 28.4677C106.232 27.8737 107.336 27.5803 108.662 27.5803C109.869 27.5803 110.93 27.8443 111.843 28.365C112.756 28.8857 113.455 29.6411 113.963 30.6164C114.471 31.5918 114.722 32.7651 114.722 34.1438V45.2321H109.869V35.0019C109.869 33.9312 109.597 33.0951 109.044 32.4938C108.5 31.8924 107.726 31.5918 106.732 31.5918C106.062 31.5918 105.48 31.7384 104.98 32.0171C104.479 32.3031 104.081 32.7138 103.794 33.2418C103.507 33.7698 103.367 34.4078 103.367 35.1632V35.1559Z" fill="white"/>
<path d="M125.541 45.5765C123.744 45.5765 122.197 45.2099 120.887 44.4839C119.583 43.7578 118.582 42.7165 117.89 41.3744C117.198 40.0251 116.852 38.4337 116.852 36.593C116.852 34.7523 117.198 33.2342 117.89 31.8849C118.582 30.5355 119.569 29.4795 120.835 28.7168C122.102 27.9541 123.597 27.5801 125.305 27.5801C126.461 27.5801 127.543 27.7634 128.545 28.1301C129.546 28.4968 130.423 29.0468 131.174 29.7801C131.925 30.5135 132.506 31.4302 132.926 32.5375C133.346 33.6449 133.552 34.9429 133.552 36.4243V37.737H118.773V34.7596H131.203L128.95 35.537C128.95 34.6496 128.817 33.8869 128.545 33.2269C128.272 32.5742 127.867 32.0682 127.33 31.7089C126.792 31.3495 126.13 31.1735 125.334 31.1735C124.539 31.1735 123.869 31.3568 123.324 31.7162C122.772 32.0829 122.352 32.5742 122.065 33.1976C121.77 33.8209 121.623 34.5396 121.623 35.3463V37.451C121.623 38.397 121.792 39.2037 122.124 39.8784C122.455 40.5531 122.926 41.0664 123.523 41.4258C124.119 41.7851 124.812 41.9611 125.599 41.9611C126.144 41.9611 126.63 41.8805 127.072 41.7264C127.507 41.5724 127.89 41.3451 128.206 41.0371C128.523 40.7364 128.758 40.3697 128.92 39.9444L133.397 40.2377C133.177 41.3084 132.72 42.2398 132.028 43.0391C131.336 43.8312 130.437 44.4545 129.34 44.8945C128.243 45.3345 126.976 45.5545 125.533 45.5545L125.541 45.5765Z" fill="white"/>
<path d="M135.621 45.2319V27.7928H140.304V30.8509H140.488C140.812 29.7728 141.349 28.9515 142.101 28.3941C142.852 27.8368 143.713 27.5581 144.685 27.5581C144.936 27.5581 145.201 27.5728 145.473 27.5948C145.753 27.6241 145.996 27.6681 146.217 27.7268V32.0022C145.989 31.9289 145.672 31.8702 145.267 31.8262C144.862 31.7822 144.494 31.7529 144.148 31.7529C143.448 31.7529 142.815 31.9069 142.255 32.2149C141.688 32.5229 141.254 32.9482 140.93 33.4909C140.606 34.0336 140.451 34.6643 140.451 35.3683V45.2246H135.613L135.621 45.2319Z" fill="white"/>
<path d="M154.832 45.5765C153.035 45.5765 151.489 45.2099 150.178 44.4839C148.874 43.7578 147.873 42.7165 147.181 41.3744C146.489 40.0251 146.143 38.4337 146.143 36.593C146.143 34.7523 146.489 33.2342 147.181 31.8849C147.873 30.5355 148.86 29.4795 150.126 28.7168C151.393 27.9541 152.888 27.5801 154.596 27.5801C155.752 27.5801 156.834 27.7634 157.836 28.1301C158.837 28.4968 159.714 29.0468 160.465 29.7801C161.216 30.5135 161.797 31.4302 162.217 32.5375C162.637 33.6449 162.843 34.9429 162.843 36.4243V37.737H148.064V34.7596H160.494L158.241 35.537C158.241 34.6496 158.108 33.8869 157.836 33.2269C157.563 32.5742 157.158 32.0682 156.621 31.7089C156.083 31.3495 155.421 31.1735 154.625 31.1735C153.83 31.1735 153.16 31.3568 152.615 31.7162C152.063 32.0829 151.643 32.5742 151.356 33.1976C151.061 33.8209 150.914 34.5396 150.914 35.3463V37.451C150.914 38.397 151.084 39.2037 151.415 39.8784C151.746 40.5531 152.217 41.0664 152.814 41.4258C153.41 41.7851 154.103 41.9611 154.89 41.9611C155.435 41.9611 155.921 41.8805 156.363 41.7264C156.798 41.5724 157.181 41.3451 157.497 41.0371C157.814 40.7364 158.049 40.3697 158.211 39.9444L162.688 40.2377C162.468 41.3084 162.011 42.2398 161.319 43.0391C160.627 43.8312 159.728 44.4545 158.631 44.8945C157.534 45.3345 156.267 45.5545 154.824 45.5545L154.832 45.5765Z" fill="white"/>
<path d="M164.853 45.232V41.7046L173.152 34.0337C173.858 33.359 174.455 32.7504 174.934 32.2003C175.412 31.6503 175.78 31.1223 176.031 30.5943C176.281 30.0663 176.406 29.5016 176.406 28.8856C176.406 28.1962 176.252 27.6096 175.935 27.1255C175.618 26.6342 175.199 26.2602 174.668 25.9889C174.138 25.7175 173.527 25.5855 172.835 25.5855C172.143 25.5855 171.502 25.7322 170.972 26.0109C170.442 26.2895 170.029 26.7075 169.742 27.2429C169.455 27.7782 169.315 28.4236 169.315 29.1716H164.617C164.617 27.6462 164.963 26.3189 165.655 25.2042C166.348 24.0895 167.32 23.2241 168.571 22.6081C169.816 21.9921 171.259 21.6914 172.886 21.6914C174.514 21.6914 175.994 21.9847 177.238 22.5714C178.483 23.1581 179.447 23.9721 180.132 25.0062C180.824 26.0402 181.163 27.2355 181.163 28.5849C181.163 29.4576 180.994 30.3156 180.648 31.1663C180.302 32.017 179.69 32.963 178.814 34.0044C177.938 35.0458 176.693 36.2925 175.088 37.7372L171.671 41.0592V41.2279H181.472V45.232H164.845H164.853Z" fill="white"/>
</g>
<defs>
<filter id="filter0_f_52_235" x="0" y="0.680176" width="69.3438" height="65.9448" filterUnits="userSpaceOnUse" color-interpolation-filters="sRGB">
<feFlood flood-opacity="0" result="BackgroundImageFix"/>
<feBlend mode="normal" in="SourceGraphic" in2="BackgroundImageFix" result="shape"/>
<feGaussianBlur stdDeviation="8.5" result="effect1_foregroundBlur_52_235"/>
</filter>
<radialGradient id="paint0_radial_52_235" cx="0" cy="0" r="1" gradientUnits="userSpaceOnUse" gradientTransform="translate(32.2928 15.6406) rotate(61.9023) scale(45.4586 45.4585)">
<stop stop-color="#F93DAB"/>
<stop offset="0.47725" stop-color="#A03FE3"/>
<stop offset="1" stop-color="#29F1E5"/>
</radialGradient>
<radialGradient id="paint1_radial_52_235" cx="0" cy="0" r="1" gradientUnits="userSpaceOnUse" gradientTransform="translate(28.6545 16.3208) rotate(59.4326) scale(46.5733 49.0854)">
<stop stop-color="#F93DAB"/>
<stop offset="0.47725" stop-color="#A03FE3"/>
<stop offset="1" stop-color="#29F1E5"/>
</radialGradient>
<clipPath id="clip0_52_235">
<rect width="116.477" height="23.8926" fill="white" transform="translate(65.0039 21.6841)"/>
</clipPath>
</defs>
</svg>
